<mxfile host="app.diagrams.net" agent="Mozilla/5.0 (Windows NT 10.0; Win64; x64) AppleWebKit/537.36 (KHTML, like Gecko) Chrome/134.0.0.0 Safari/537.36" version="26.2.3">
  <diagram name="Page-1" id="erLbLtk_Gl2lsXBGeY98">
    <mxGraphModel dx="786" dy="1136" grid="1" gridSize="10" guides="1" tooltips="1" connect="1" arrows="1" fold="1" page="1" pageScale="1" pageWidth="850" pageHeight="1100" math="0" shadow="0">
      <root>
        <object label="" id="0">
          <mxCell />
        </object>
        <mxCell id="1" parent="0" />
        <mxCell id="SPswUUhGZlUgHw1STl6Y-11" style="edgeStyle=orthogonalEdgeStyle;rounded=0;orthogonalLoop=1;jettySize=auto;html=1;exitX=0.5;exitY=0.5;exitDx=0;exitDy=0;exitPerimeter=0;entryX=0;entryY=0.5;entryDx=0;entryDy=0;" edge="1" parent="1" source="SPswUUhGZlUgHw1STl6Y-1" target="SPswUUhGZlUgHw1STl6Y-3">
          <mxGeometry relative="1" as="geometry" />
        </mxCell>
        <mxCell id="SPswUUhGZlUgHw1STl6Y-13" style="edgeStyle=orthogonalEdgeStyle;rounded=0;orthogonalLoop=1;jettySize=auto;html=1;exitX=0.5;exitY=0.5;exitDx=0;exitDy=0;exitPerimeter=0;entryX=0;entryY=0.5;entryDx=0;entryDy=0;" edge="1" parent="1" source="SPswUUhGZlUgHw1STl6Y-1" target="SPswUUhGZlUgHw1STl6Y-5">
          <mxGeometry relative="1" as="geometry" />
        </mxCell>
        <mxCell id="SPswUUhGZlUgHw1STl6Y-14" style="edgeStyle=orthogonalEdgeStyle;rounded=0;orthogonalLoop=1;jettySize=auto;html=1;exitX=0.5;exitY=0.5;exitDx=0;exitDy=0;exitPerimeter=0;entryX=0;entryY=0.5;entryDx=0;entryDy=0;" edge="1" parent="1" source="SPswUUhGZlUgHw1STl6Y-1" target="SPswUUhGZlUgHw1STl6Y-6">
          <mxGeometry relative="1" as="geometry" />
        </mxCell>
        <mxCell id="SPswUUhGZlUgHw1STl6Y-15" style="edgeStyle=orthogonalEdgeStyle;rounded=0;orthogonalLoop=1;jettySize=auto;html=1;exitX=0.5;exitY=0.5;exitDx=0;exitDy=0;exitPerimeter=0;entryX=0;entryY=0.5;entryDx=0;entryDy=0;" edge="1" parent="1" source="SPswUUhGZlUgHw1STl6Y-1" target="SPswUUhGZlUgHw1STl6Y-7">
          <mxGeometry relative="1" as="geometry" />
        </mxCell>
        <mxCell id="SPswUUhGZlUgHw1STl6Y-1" value="Administrador" style="shape=umlActor;verticalLabelPosition=bottom;verticalAlign=top;html=1;outlineConnect=0;" vertex="1" parent="1">
          <mxGeometry x="80" y="450" width="30" height="60" as="geometry" />
        </mxCell>
        <mxCell id="SPswUUhGZlUgHw1STl6Y-18" style="edgeStyle=orthogonalEdgeStyle;rounded=0;orthogonalLoop=1;jettySize=auto;html=1;exitX=0.5;exitY=0.5;exitDx=0;exitDy=0;exitPerimeter=0;entryX=1;entryY=0.5;entryDx=0;entryDy=0;" edge="1" parent="1" source="SPswUUhGZlUgHw1STl6Y-2" target="SPswUUhGZlUgHw1STl6Y-5">
          <mxGeometry relative="1" as="geometry" />
        </mxCell>
        <mxCell id="SPswUUhGZlUgHw1STl6Y-2" value="Jugador" style="shape=umlActor;verticalLabelPosition=bottom;verticalAlign=top;html=1;outlineConnect=0;" vertex="1" parent="1">
          <mxGeometry x="620" y="450" width="30" height="60" as="geometry" />
        </mxCell>
        <mxCell id="SPswUUhGZlUgHw1STl6Y-3" value="Crear equipos" style="shape=ellipse;html=1;strokeWidth=3;fontStyle=1;whiteSpace=wrap;align=center;perimeter=ellipsePerimeter;" vertex="1" parent="1">
          <mxGeometry x="270" y="450" width="120" height="60" as="geometry" />
        </mxCell>
        <mxCell id="SPswUUhGZlUgHw1STl6Y-4" value="AÃ±adir jugador a equipo" style="shape=ellipse;html=1;strokeWidth=3;fontStyle=1;whiteSpace=wrap;align=center;perimeter=ellipsePerimeter;" vertex="1" parent="1">
          <mxGeometry x="270" y="310" width="120" height="60" as="geometry" />
        </mxCell>
        <mxCell id="SPswUUhGZlUgHw1STl6Y-5" value="Crear torneo" style="shape=ellipse;html=1;strokeWidth=3;fontStyle=1;whiteSpace=wrap;align=center;perimeter=ellipsePerimeter;" vertex="1" parent="1">
          <mxGeometry x="270" y="170" width="120" height="60" as="geometry" />
        </mxCell>
        <mxCell id="SPswUUhGZlUgHw1STl6Y-6" value="Consultar lista equipos/jugadores" style="shape=ellipse;html=1;strokeWidth=3;fontStyle=1;whiteSpace=wrap;align=center;perimeter=ellipsePerimeter;" vertex="1" parent="1">
          <mxGeometry x="280" y="580" width="120" height="60" as="geometry" />
        </mxCell>
        <mxCell id="SPswUUhGZlUgHw1STl6Y-7" value="Inscribir equipos a los torneos" style="shape=ellipse;html=1;strokeWidth=3;fontStyle=1;whiteSpace=wrap;align=center;perimeter=ellipsePerimeter;" vertex="1" parent="1">
          <mxGeometry x="290" y="700" width="120" height="60" as="geometry" />
        </mxCell>
        <mxCell id="SPswUUhGZlUgHw1STl6Y-12" style="edgeStyle=orthogonalEdgeStyle;rounded=0;orthogonalLoop=1;jettySize=auto;html=1;exitX=0.5;exitY=0.5;exitDx=0;exitDy=0;exitPerimeter=0;entryX=0;entryY=0.672;entryDx=0;entryDy=0;entryPerimeter=0;" edge="1" parent="1" source="SPswUUhGZlUgHw1STl6Y-1" target="SPswUUhGZlUgHw1STl6Y-4">
          <mxGeometry relative="1" as="geometry" />
        </mxCell>
        <mxCell id="SPswUUhGZlUgHw1STl6Y-20" value="" style="endArrow=none;dashed=1;html=1;rounded=0;exitX=0.5;exitY=1;exitDx=0;exitDy=0;" edge="1" parent="1" source="SPswUUhGZlUgHw1STl6Y-4">
          <mxGeometry width="50" height="50" relative="1" as="geometry">
            <mxPoint x="310" y="490" as="sourcePoint" />
            <mxPoint x="330" y="440" as="targetPoint" />
          </mxGeometry>
        </mxCell>
        <mxCell id="SPswUUhGZlUgHw1STl6Y-21" value="&amp;lt;&amp;lt;include&amp;gt;&amp;gt;" style="edgeLabel;html=1;align=center;verticalAlign=middle;resizable=0;points=[];" vertex="1" connectable="0" parent="SPswUUhGZlUgHw1STl6Y-20">
          <mxGeometry x="-0.2476" y="1" relative="1" as="geometry">
            <mxPoint as="offset" />
          </mxGeometry>
        </mxCell>
        <mxCell id="SPswUUhGZlUgHw1STl6Y-22" value="" style="endArrow=none;dashed=1;html=1;rounded=0;exitX=0.5;exitY=1;exitDx=0;exitDy=0;" edge="1" parent="1">
          <mxGeometry width="50" height="50" relative="1" as="geometry">
            <mxPoint x="329.5" y="515" as="sourcePoint" />
            <mxPoint x="329.5" y="585" as="targetPoint" />
          </mxGeometry>
        </mxCell>
        <mxCell id="SPswUUhGZlUgHw1STl6Y-23" value="&amp;lt;&amp;lt;extend&amp;gt;&amp;gt;" style="edgeLabel;html=1;align=center;verticalAlign=middle;resizable=0;points=[];" vertex="1" connectable="0" parent="SPswUUhGZlUgHw1STl6Y-22">
          <mxGeometry x="-0.2476" y="1" relative="1" as="geometry">
            <mxPoint as="offset" />
          </mxGeometry>
        </mxCell>
      </root>
    </mxGraphModel>
  </diagram>
</mxfile>
